<svg width="1200" height="320" viewBox="0 0 1200 320" fill="none" xmlns="http://www.w3.org/2000/svg" role="img" aria-labelledby="title desc"><title id="title">LLMCookieBridge logo</title><desc id="desc">A stylized bridge over a bitten cookie with connector nodes, followed by the text LLMCookieBridge.</desc><defs>  <linearGradient id="bridgeGrad" x1="60" y1="40" x2="300" y2="240" gradientUnits="userSpaceOnUse">    <stop offset="0" stop-color="#7C3AED"/>    <stop offset="0.52" stop-color="#2563EB"/>    <stop offset="1" stop-color="#06B6D4"/>  </linearGradient>  <linearGradient id="textGrad" x1="350" y1="90" x2="960" y2="250" gradientUnits="userSpaceOnUse">    <stop offset="0" stop-color="#0F172A"/>    <stop offset="1" stop-color="#334155"/>  </linearGradient>  <filter id="softShadow" x="-20%" y="-20%" width="140%" height="160%">    <feDropShadow dx="0" dy="10" stdDeviation="12" flood-color="#0F172A" flood-opacity="0.12"/>  </filter></defs><g filter="url(#softShadow)">  <circle cx="170" cy="160" r="80" fill="#F8FAFC"/>  <circle cx="170" cy="160" r="73" fill="#F59E0B"/>  <circle cx="228" cy="110" r="20" fill="white"/>  <circle cx="248" cy="136" r="12" fill="white"/>  <circle cx="113" cy="124" r="6" fill="#A16207"/>  <circle cx="158" cy="116" r="6" fill="#A16207"/>  <circle cx="116" cy="178" r="6" fill="#A16207"/>  <circle cx="171" cy="192" r="6" fill="#A16207"/>  <circle cx="210" cy="174" r="6" fill="#A16207"/>  <circle cx="151" cy="153" r="6" fill="#A16207"/>  <path d="M54 192C80 192 92 184 112 166C130 150 144 132 170 132C196 132 210 149 228 166C248 184 260 192 286 192" stroke="url(#bridgeGrad)" stroke-width="18" stroke-linecap="round"/>  <path d="M90 192V230M130 164V230M170 146V230M210 164V230M250 192V230" stroke="url(#bridgeGrad)" stroke-width="10" stroke-linecap="round"/>  <path d="M54 230H286" stroke="url(#bridgeGrad)" stroke-width="14" stroke-linecap="round"/>  <circle cx="54" cy="230" r="16" fill="#7C3AED"/>  <circle cx="286" cy="230" r="16" fill="#06B6D4"/>  <path d="M24 116L40 102L24 88" stroke="#94A3B8" stroke-width="8" stroke-linecap="round" stroke-linejoin="round"/>  <path d="M316 88L300 102L316 116" stroke="#94A3B8" stroke-width="8" stroke-linecap="round" stroke-linejoin="round"/></g><g fill="url(#textGrad)">  <text x="360" y="165" font-size="74" font-weight="800" font-family="Inter, Segoe UI, Arial, sans-serif" letter-spacing="-1.5">LLMCookie</text>  <text x="360" y="233" font-size="74" font-weight="800" font-family="Inter, Segoe UI, Arial, sans-serif" letter-spacing="-1.5">Bridge</text></g><g>  <rect x="362" y="258" width="376" height="18" rx="9" fill="#E2E8F0"/>  <rect x="362" y="258" width="232" height="18" rx="9" fill="url(#bridgeGrad)"/>  <text x="756" y="273" font-size="22" font-weight="600" font-family="Inter, Segoe UI, Arial, sans-serif" fill="#475569">async cookie/session bridge</text></g></svg>