<svg width="512" height="512" viewBox="0 0 512 512" fill="none" xmlns="http://www.w3.org/2000/svg" role="img" aria-labelledby="title desc"><title id="title">LLMCookieBridge mark</title><desc id="desc">A stylized bridge over a bitten cookie with connector nodes.</desc><defs><linearGradient id="bridgeGrad" x1="90" y1="70" x2="410" y2="420" gradientUnits="userSpaceOnUse"><stop offset="0" stop-color="#7C3AED"/><stop offset="0.52" stop-color="#2563EB"/><stop offset="1" stop-color="#06B6D4"/></linearGradient><filter id="softShadow" x="-20%" y="-20%" width="140%" height="160%"><feDropShadow dx="0" dy="18" stdDeviation="18" flood-color="#0F172A" flood-opacity="0.14"/></filter></defs><g filter="url(#softShadow)"><circle cx="256" cy="244" r="136" fill="#F8FAFC"/><circle cx="256" cy="244" r="124" fill="#F59E0B"/><circle cx="354" cy="154" r="34" fill="white"/><circle cx="387" cy="197" r="22" fill="white"/><circle cx="172" cy="178" r="10" fill="#A16207"/><circle cx="247" cy="171" r="10" fill="#A16207"/><circle cx="173" cy="273" r="10" fill="#A16207"/><circle cx="261" cy="300" r="10" fill="#A16207"/><circle cx="331" cy="266" r="10" fill="#A16207"/><circle cx="236" cy="227" r="10" fill="#A16207"/><path d="M62 300C110 300 135 284 172 252C203 225 222 200 256 200C290 200 309 225 340 252C377 284 402 300 450 300" stroke="url(#bridgeGrad)" stroke-width="28" stroke-linecap="round"/><path d="M118 300V374M181 250V374M256 222V374M331 250V374M394 300V374" stroke="url(#bridgeGrad)" stroke-width="16" stroke-linecap="round"/><path d="M62 374H450" stroke="url(#bridgeGrad)" stroke-width="22" stroke-linecap="round"/><circle cx="62" cy="374" r="24" fill="#7C3AED"/><circle cx="450" cy="374" r="24" fill="#06B6D4"/><path d="M32 163L58 139L32 115" stroke="#94A3B8" stroke-width="12" stroke-linecap="round" stroke-linejoin="round"/><path d="M480 115L454 139L480 163" stroke="#94A3B8" stroke-width="12" stroke-linecap="round" stroke-linejoin="round"/></g></svg>